<svg id="kity_svg_6" xmlns="http://www.w3.org/2000/svg" xmlns:xlink="http://www.w3.org/1999/xlink" version="1.1" width="1132" height="872" style="background: rgb(251, 251, 251); visibility: visible;" viewBox="0 0 1132 872"><defs id="kity_defs_7"><linearGradient id="kity_linearGradient_17" x1="0" y1="0" x2="0" y2="1"><stop id="kity_stop_18" offset="0" stop-color="rgb(255, 255, 255)"></stop><stop id="kity_stop_19" offset="1" stop-color="rgb(204, 204, 204)"></stop></linearGradient><marker id="kity_marker_2" orient="auto" refX="6" refY="0" viewBox="-7 -7 14 14" markerWidth="7" markerHeight="7" markerUnits="userSpaceOnUse"><path id="kity_path_3" fill="rgb(115, 161, 191)" stroke="none" d="M6,0A6,6,0,1,1,-6,0A6,6,0,1,1,6,0"></path></marker></defs><g id="kity_g_8"><g id="minder1" text-rendering="optimize-speed"><g id="minder_connect_group1"><path id="kity_path_31" fill="none" stroke="rgb(115, 161, 191)" stroke-width="1" d="M114,449.5A211.5,366,0,0,1,325.5,83.5"></path><path id="kity_path_33" fill="none" stroke="rgb(115, 161, 191)" stroke-width="1" d="M396.5,83.5C416.5,83.5,416.5,31.5,436.5,31.5"></path><path id="kity_path_35" fill="none" stroke="rgb(115, 161, 191)" stroke-width="1" d="M568.5,31.5C588.5,31.5,588.5,31.5,608.5,31.5"></path><path id="kity_path_37" fill="none" stroke="rgb(115, 161, 191)" stroke-width="1" d="M396.5,83.5C416.5,83.5,416.5,83.5,436.5,83.5"></path><path id="kity_path_39" fill="none" stroke="rgb(115, 161, 191)" stroke-width="1" d="M757.5,83.5C777.5,83.5,777.5,83.5,797.5,83.5"></path><path id="kity_path_41" fill="none" stroke="rgb(115, 161, 191)" stroke-width="1" d="M396.5,83.5C416.5,83.5,416.5,135.5,436.5,135.5"></path><path id="kity_path_43" fill="none" stroke="rgb(115, 161, 191)" stroke-width="1" d="M674.5,135.5C694.5,135.5,694.5,135.5,714.5,135.5"></path><path id="kity_path_45" fill="none" stroke="rgb(115, 161, 191)" stroke-width="1" d="M114,449.5A211.5,96,0,0,1,325.5,353.5"></path><path id="kity_path_47" fill="none" stroke="rgb(115, 161, 191)" stroke-width="1" d="M396.5,353.5C416.5,353.5,416.5,249.5,436.5,249.5"></path><path id="kity_path_49" fill="none" stroke="rgb(115, 161, 191)" stroke-width="1" d="M506.5,249.5C526.5,249.5,526.5,197.5,546.5,197.5"></path><path id="kity_path_51" fill="none" stroke="rgb(115, 161, 191)" stroke-width="1" d="M506.5,249.5C526.5,249.5,526.5,249.5,546.5,249.5"></path><path id="kity_path_53" fill="none" stroke="rgb(115, 161, 191)" stroke-width="1" d="M506.5,249.5C526.5,249.5,526.5,301.5,546.5,301.5"></path><path id="kity_path_55" fill="none" stroke="rgb(115, 161, 191)" stroke-width="1" d="M396.5,353.5C416.5,353.5,416.5,457.5,436.5,457.5"></path><path id="kity_path_57" fill="none" stroke="rgb(115, 161, 191)" stroke-width="1" d="M506.5,457.5C526.5,457.5,526.5,353.5,546.5,353.5"></path><path id="kity_path_59" fill="none" stroke="rgb(115, 161, 191)" stroke-width="1" d="M506.5,457.5C526.5,457.5,526.5,405.5,546.5,405.5"></path><path id="kity_path_61" fill="none" stroke="rgb(115, 161, 191)" stroke-width="1" d="M506.5,457.5C526.5,457.5,526.5,509.5,546.5,509.5"></path><path id="kity_path_63" fill="none" stroke="rgb(115, 161, 191)" stroke-width="1" d="M506.5,457.5C526.5,457.5,526.5,561.5,546.5,561.5"></path><path id="kity_path_65" fill="none" stroke="rgb(115, 161, 191)" stroke-width="1" d="M114,449.5A211.5,239,0,0,0,325.5,688.5"></path><path id="kity_path_67" fill="none" stroke="rgb(115, 161, 191)" stroke-width="1" d="M397.5,688.5C417.5,688.5,417.5,649.5,437.5,649.5"></path><path id="kity_path_69" fill="none" stroke="rgb(115, 161, 191)" stroke-width="1" d="M518.5,649.5C538.5,649.5,538.5,623.5,558.5,623.5"></path><path id="kity_path_71" fill="none" stroke="rgb(115, 161, 191)" stroke-width="1" d="M518.5,649.5C538.5,649.5,538.5,675.5,558.5,675.5"></path><path id="kity_path_73" fill="none" stroke="rgb(115, 161, 191)" stroke-width="1" d="M397.5,688.5C417.5,688.5,417.5,727.5,437.5,727.5"></path><path id="kity_path_75" fill="none" stroke="rgb(115, 161, 191)" stroke-width="1" d="M507.5,727.5C527.5,727.5,527.5,727.5,547.5,727.5"></path><path id="kity_path_77" fill="none" stroke="rgb(115, 161, 191)" stroke-width="1" d="M654.5,727.5C674.5,727.5,674.5,727.5,694.5,727.5"></path><path id="kity_path_79" fill="none" stroke="rgb(115, 161, 191)" stroke-width="1" d="M114,449.5A211.5,366,0,0,0,325.5,815.5"></path><path id="kity_path_81" fill="none" stroke="rgb(115, 161, 191)" stroke-width="1" d="M425.5,815.5C445.5,815.5,445.5,789.5,465.5,789.5"></path><path id="kity_path_83" fill="none" stroke="rgb(115, 161, 191)" stroke-width="1" d="M425.5,815.5C445.5,815.5,445.5,841.5,465.5,841.5"></path><path id="kity_path_247" fill="none" stroke="rgb(115, 161, 191)" stroke-width="1" d="M506.5,457.5C526.5,457.5,526.5,457.5,546.5,457.5"></path><path id="kity_path_255" fill="none" stroke="rgb(115, 161, 191)" stroke-width="1" d="M695.5,457.5C715.5,457.5,715.5,457.5,735.5,457.5"></path></g><g id="minder_node1"><path id="node_outline1" fill="rgb(115, 161, 191)" stroke="rgb(115, 161, 191)" d="M25.5,429.5h177a5,5,0,0,1,5,5v30a5,5,0,0,1,-5,5h-177a5,5,0,0,1,-5,-5v-30a5,5,0,0,1,5,-5z" stroke-width="3"></path><g id="node_text1" fill="white"><text id="kity_text_22" text-rendering="inherit" font-size="16" dy=".8em" y="439.09999990463257" x="44.5">PANDA检测及跟踪</text></g></g><g id="kity_g_14" display="none"><path id="kity_path_15" fill="rgba(0, 92, 153, 0.5)" stroke="none" d="M546.5,421.5h164v15h-164z"></path><path id="kity_path_16" fill="none" stroke="rgb(0, 76, 128)" d="M546.5,421.5L710.5,421.5" stroke-width="1"></path></g><g id="minder_node2"><g id="node_expander7" style="cursor: pointer;"><path id="kity_path_184" fill="white" stroke="gray" d="M326.5,83.5A6,6,0,1,1,314.5,83.5A6,6,0,1,1,326.5,83.5"></path><path id="kity_path_185" fill="none" stroke="gray" d="M316,83.5L325,83.5"></path></g><path id="node_outline8" fill="rgb(238, 243, 246)" stroke="rgb(115, 161, 191)" d="M330.5,70.5h63a3,3,0,0,1,3,3v20a3,3,0,0,1,-3,3h-63a3,3,0,0,1,-3,-3v-20a3,3,0,0,1,3,-3z" stroke-width="1"></path><g id="node_text8" fill="black"><text id="kity_text_97" text-rendering="inherit" font-size="14" dy=".8em" y="74.40000009536743" x="347.5">难点</text></g></g><g id="minder_node3"><g id="node_expander2" style="cursor: pointer;"><path id="kity_path_169" fill="white" stroke="gray" d="M436.5,31.5A6,6,0,1,1,424.5,31.5A6,6,0,1,1,436.5,31.5"></path><path id="kity_path_170" fill="none" stroke="gray" d="M426,31.5L435,31.5"></path></g><path id="node_outline3" fill="none" stroke="none" d="M441.5,20.5h122a5,5,0,0,1,5,5v12a5,5,0,0,1,-5,5h-122a5,5,0,0,1,-5,-5v-12a5,5,0,0,1,5,-5z"></path><g id="node_text3" fill="black"><text id="kity_text_87" text-rendering="inherit" font-size="12" dy=".8em" y="23.700000047683716" x="446.5">分辨率大：10亿像素</text></g></g><g id="minder_node4"><g id="node_expander1" style="cursor: pointer;" display="none"><path id="kity_path_166" fill="white" stroke="gray" d="M608.5,31.5A6,6,0,1,1,596.5,31.5A6,6,0,1,1,608.5,31.5"></path><path id="kity_path_167" fill="none" stroke="gray"></path></g><path id="node_outline2" fill="none" stroke="none" d="M613.5,20.5h144a5,5,0,0,1,5,5v12a5,5,0,0,1,-5,5h-144a5,5,0,0,1,-5,-5v-12a5,5,0,0,1,5,-5z"></path><g id="node_text2" fill="black"><text id="kity_text_85" text-rendering="inherit" font-size="12" dy=".8em" y="23.700000047683716" x="618.5">分割为多个子图进行训练</text></g></g><g id="minder_node5"><g id="node_expander4" style="cursor: pointer;"><path id="kity_path_175" fill="white" stroke="gray" d="M436.5,83.5A6,6,0,1,1,424.5,83.5A6,6,0,1,1,436.5,83.5"></path><path id="kity_path_176" fill="none" stroke="gray" d="M426,83.5L435,83.5"></path></g><path id="node_outline5" fill="none" stroke="none" d="M441.5,72.5h311a5,5,0,0,1,5,5v12a5,5,0,0,1,-5,5h-311a5,5,0,0,1,-5,-5v-12a5,5,0,0,1,5,-5z"></path><g id="node_text5" fill="black"><text id="kity_text_91" text-rendering="inherit" font-size="12" dy=".8em" y="75.70000004768372" x="446.5">目标尺度大：小目标宽高几十像素，大目标宽高几千像素</text></g></g><g id="minder_node6"><g id="node_expander3" style="cursor: pointer;" display="none"><path id="kity_path_172" fill="white" stroke="gray" d="M797.5,83.5A6,6,0,1,1,785.5,83.5A6,6,0,1,1,797.5,83.5"></path><path id="kity_path_173" fill="none" stroke="gray"></path></g><path id="node_outline4" fill="none" stroke="none" d="M802.5,72.5h70a5,5,0,0,1,5,5v12a5,5,0,0,1,-5,5h-70a5,5,0,0,1,-5,-5v-12a5,5,0,0,1,5,-5z"></path><g id="node_text4" fill="black"><text id="kity_text_89" text-rendering="inherit" font-size="12" dy=".8em" y="75.70000004768372" x="807.5">多尺度预测</text></g></g><g id="minder_node7"><g id="node_expander6" style="cursor: pointer;"><path id="kity_path_181" fill="white" stroke="gray" d="M436.5,135.5A6,6,0,1,1,424.5,135.5A6,6,0,1,1,436.5,135.5"></path><path id="kity_path_182" fill="none" stroke="gray" d="M426,135.5L435,135.5"></path></g><path id="node_outline7" fill="none" stroke="none" d="M441.5,124.5h228a5,5,0,0,1,5,5v12a5,5,0,0,1,-5,5h-228a5,5,0,0,1,-5,-5v-12a5,5,0,0,1,5,-5z"></path><g id="node_text7" fill="black"><text id="kity_text_95" text-rendering="inherit" font-size="12" dy=".8em" y="127.70000004768372" x="446.5">行人可见区域、行人全身区域大面积重叠</text></g></g><g id="minder_node8"><g id="node_expander5" style="cursor: pointer;" display="none"><path id="kity_path_178" fill="white" stroke="gray" d="M714.5,135.5A6,6,0,1,1,702.5,135.5A6,6,0,1,1,714.5,135.5"></path><path id="kity_path_179" fill="none" stroke="gray"></path></g><path id="node_outline6" fill="none" stroke="none" d="M719.5,124.5h95a5,5,0,0,1,5,5v12a5,5,0,0,1,-5,5h-95a5,5,0,0,1,-5,-5v-12a5,5,0,0,1,5,-5z"></path><g id="node_text6" fill="black"><text id="kity_text_93" text-rendering="inherit" font-size="12" dy=".8em" y="127.70000004768372" x="724.5">双模型分开预测</text></g></g><g id="minder_node9"><g id="node_expander17" style="cursor: pointer;"><path id="kity_path_214" fill="white" stroke="gray" d="M326.5,353.5A6,6,0,1,1,314.5,353.5A6,6,0,1,1,326.5,353.5"></path><path id="kity_path_215" fill="none" stroke="gray" d="M316,353.5L325,353.5"></path></g><path id="node_outline18" fill="rgb(238, 243, 246)" stroke="rgb(115, 161, 191)" d="M330.5,340.5h63a3,3,0,0,1,3,3v20a3,3,0,0,1,-3,3h-63a3,3,0,0,1,-3,-3v-20a3,3,0,0,1,3,-3z" stroke-width="1"></path><g id="node_text18" fill="black"><text id="kity_text_117" text-rendering="inherit" font-size="14" dy=".8em" y="344.40000009536743" x="347.5">检测</text></g></g><g id="minder_node10"><g id="node_expander11" style="cursor: pointer;"><path id="kity_path_196" fill="white" stroke="gray" d="M436.5,249.5A6,6,0,1,1,424.5,249.5A6,6,0,1,1,436.5,249.5"></path><path id="kity_path_197" fill="none" stroke="gray" d="M426,249.5L435,249.5"></path></g><path id="node_outline12" fill="none" stroke="none" d="M441.5,238.5h60a5,5,0,0,1,5,5v12a5,5,0,0,1,-5,5h-60a5,5,0,0,1,-5,-5v-12a5,5,0,0,1,5,-5z"></path><g id="node_text12" fill="black"><text id="kity_text_105" text-rendering="inherit" font-size="12" dy=".8em" y="241.70000004768372" x="446.5">数据处理</text></g></g><g id="minder_node11"><g id="node_expander8" style="cursor: pointer;" display="none"><path id="kity_path_187" fill="white" stroke="gray" d="M546.5,197.5A6,6,0,1,1,534.5,197.5A6,6,0,1,1,546.5,197.5"></path><path id="kity_path_188" fill="none" stroke="gray"></path></g><path id="node_outline9" fill="none" stroke="none" d="M551.5,186.5h314a5,5,0,0,1,5,5v12a5,5,0,0,1,-5,5h-314a5,5,0,0,1,-5,-5v-12a5,5,0,0,1,5,-5z"></path><g id="node_text9" fill="black"><text id="kity_text_99" text-rendering="inherit" font-size="12" dy=".8em" y="189.70000004768372" x="556.5">多尺度切图0.1,0.5,1，统一分割为2560大小，制作训练集</text></g></g><g id="minder_node12"><g id="node_expander9" style="cursor: pointer;" display="none"><path id="kity_path_190" fill="white" stroke="gray" d="M546.5,249.5A6,6,0,1,1,534.5,249.5A6,6,0,1,1,546.5,249.5"></path><path id="kity_path_191" fill="none" stroke="gray"></path></g><path id="node_outline10" fill="none" stroke="none" d="M551.5,238.5h94a5,5,0,0,1,5,5v12a5,5,0,0,1,-5,5h-94a5,5,0,0,1,-5,-5v-12a5,5,0,0,1,5,-5z"></path><g id="node_text10" fill="black"><text id="kity_text_101" text-rendering="inherit" font-size="12" dy=".8em" y="241.70000004768372" x="556.5">多进程加速切图</text></g></g><g id="minder_node13"><g id="node_expander10" style="cursor: pointer;" display="none"><path id="kity_path_193" fill="white" stroke="gray" d="M546.5,301.5A6,6,0,1,1,534.5,301.5A6,6,0,1,1,546.5,301.5"></path><path id="kity_path_194" fill="none" stroke="gray"></path></g><path id="node_outline11" fill="none" stroke="none" d="M551.5,290.5h131a5,5,0,0,1,5,5v12a5,5,0,0,1,-5,5h-131a5,5,0,0,1,-5,-5v-12a5,5,0,0,1,5,-5z"></path><g id="node_text11" fill="black"><text id="kity_text_103" text-rendering="inherit" font-size="12" dy=".8em" y="293.7000000476837" x="556.5">随机翻转进行数据增强</text></g></g><g id="minder_node14"><g id="node_expander16" style="cursor: pointer;"><path id="kity_path_211" fill="white" stroke="gray" d="M436.5,457.5A6,6,0,1,1,424.5,457.5A6,6,0,1,1,436.5,457.5"></path><path id="kity_path_212" fill="none" stroke="gray" d="M426,457.5L435,457.5"></path></g><path id="node_outline17" fill="none" stroke="none" d="M441.5,446.5h60a5,5,0,0,1,5,5v12a5,5,0,0,1,-5,5h-60a5,5,0,0,1,-5,-5v-12a5,5,0,0,1,5,-5z"></path><g id="node_text17" fill="black"><text id="kity_text_115" text-rendering="inherit" font-size="12" dy=".8em" y="449.7000000476837" x="446.5">模型推理</text></g></g><g id="minder_node15"><g id="node_expander12" style="cursor: pointer;" display="none"><path id="kity_path_199" fill="white" stroke="gray" d="M546.5,353.5A6,6,0,1,1,534.5,353.5A6,6,0,1,1,546.5,353.5"></path><path id="kity_path_200" fill="none" stroke="gray"></path></g><path id="node_outline13" fill="none" stroke="none" d="M551.5,342.5h70a5,5,0,0,1,5,5v12a5,5,0,0,1,-5,5h-70a5,5,0,0,1,-5,-5v-12a5,5,0,0,1,5,-5z"></path><g id="node_text13" fill="black"><text id="kity_text_107" text-rendering="inherit" font-size="12" dy=".8em" y="345.7000000476837" x="556.5">多尺度切图</text></g></g><g id="minder_node16"><g id="node_expander13" style="cursor: pointer;" display="none"><path id="kity_path_202" fill="white" stroke="gray" d="M546.5,405.5A6,6,0,1,1,534.5,405.5A6,6,0,1,1,546.5,405.5"></path><path id="kity_path_203" fill="none" stroke="gray"></path></g><path id="node_outline14" fill="none" stroke="none" d="M551.5,394.5h154a5,5,0,0,1,5,5v12a5,5,0,0,1,-5,5h-154a5,5,0,0,1,-5,-5v-12a5,5,0,0,1,5,-5z"></path><g id="node_text14" fill="black"><text id="kity_text_109" text-rendering="inherit" font-size="12" dy=".8em" y="397.7000000476837" x="556.5">cascade RCNN+DCN预测</text></g></g><g id="minder_node17"><g id="node_expander14" style="cursor: pointer;" display="none"><path id="kity_path_205" fill="white" stroke="gray" d="M546.5,509.5A6,6,0,1,1,534.5,509.5A6,6,0,1,1,546.5,509.5"></path><path id="kity_path_206" fill="none" stroke="gray"></path></g><path id="node_outline15" fill="none" stroke="none" d="M551.5,498.5h222a5,5,0,0,1,5,5v12a5,5,0,0,1,-5,5h-222a5,5,0,0,1,-5,-5v-12a5,5,0,0,1,5,-5z" stroke-width="3"></path><g id="node_text15" fill="black"><text id="kity_text_111" text-rendering="inherit" font-size="12" dy=".8em" y="501.7000000476837" x="556.5">patch结果合并，并使用DIOU进行NMS</text></g></g><g id="minder_node18"><g id="node_expander15" style="cursor: pointer;" display="none"><path id="kity_path_208" fill="white" stroke="gray" d="M546.5,561.5A6,6,0,1,1,534.5,561.5A6,6,0,1,1,546.5,561.5"></path><path id="kity_path_209" fill="none" stroke="gray"></path></g><path id="node_outline16" fill="none" stroke="none" d="M551.5,550.5h301a5,5,0,0,1,5,5v12a5,5,0,0,1,-5,5h-301a5,5,0,0,1,-5,-5v-12a5,5,0,0,1,5,-5z"></path><g id="node_text16" fill="black"><text id="kity_text_113" text-rendering="inherit" font-size="12" dy=".8em" y="553.7000000476837" x="556.5">使用WBF进行模型融合（由于训练资源有限没有使用）</text></g></g><g id="minder_node19"><g id="node_expander24" style="cursor: pointer;"><path id="kity_path_235" fill="white" stroke="gray" d="M326.5,688.5A6,6,0,1,1,314.5,688.5A6,6,0,1,1,326.5,688.5"></path><path id="kity_path_236" fill="none" stroke="gray" d="M316,688.5L325,688.5"></path></g><path id="node_outline25" fill="rgb(238, 243, 246)" stroke="rgb(115, 161, 191)" d="M330.5,675.5h64a3,3,0,0,1,3,3v20a3,3,0,0,1,-3,3h-64a3,3,0,0,1,-3,-3v-20a3,3,0,0,1,3,-3z" stroke-width="1"></path><g id="node_text25" fill="black"><text id="kity_text_131" text-rendering="inherit" font-size="14" dy=".8em" y="679.4000000953674" x="347.5">跟踪</text></g></g><g id="minder_node20"><g id="node_expander20" style="cursor: pointer;"><path id="kity_path_223" fill="white" stroke="gray" d="M437.5,649.5A6,6,0,1,1,425.5,649.5A6,6,0,1,1,437.5,649.5"></path><path id="kity_path_224" fill="none" stroke="gray" d="M427,649.5L436,649.5"></path></g><path id="node_outline21" fill="none" stroke="none" d="M442.5,638.5h71a5,5,0,0,1,5,5v12a5,5,0,0,1,-5,5h-71a5,5,0,0,1,-5,-5v-12a5,5,0,0,1,5,-5z"></path><g id="node_text21" fill="black"><text id="kity_text_123" text-rendering="inherit" font-size="12" dy=".8em" y="641.7000000476837" x="447.5">行人重识别</text></g></g><g id="minder_node21"><g id="node_expander18" style="cursor: pointer;" display="none"><path id="kity_path_217" fill="white" stroke="gray" d="M558.5,623.5A6,6,0,1,1,546.5,623.5A6,6,0,1,1,558.5,623.5"></path><path id="kity_path_218" fill="none" stroke="gray"></path></g><path id="node_outline19" fill="none" stroke="none" d="M563.5,612.5h216a5,5,0,0,1,5,5v12a5,5,0,0,1,-5,5h-216a5,5,0,0,1,-5,-5v-12a5,5,0,0,1,5,-5z"></path><g id="node_text19" fill="black"><text id="kity_text_119" text-rendering="inherit" font-size="12" dy=".8em" y="615.7000000476837" x="568.5">根据跟踪数据集生成行人重识别数据集</text></g></g><g id="minder_node22"><g id="node_expander19" style="cursor: pointer;" display="none"><path id="kity_path_220" fill="white" stroke="gray" d="M558.5,675.5A6,6,0,1,1,546.5,675.5A6,6,0,1,1,558.5,675.5"></path><path id="kity_path_221" fill="none" stroke="gray"></path></g><path id="node_outline20" fill="none" stroke="none" d="M563.5,664.5h153a5,5,0,0,1,5,5v12a5,5,0,0,1,-5,5h-153a5,5,0,0,1,-5,-5v-12a5,5,0,0,1,5,-5z"></path><g id="node_text20" fill="black"><text id="kity_text_121" text-rendering="inherit" font-size="12" dy=".8em" y="667.7000000476837" x="568.5">使用naic中提出的reid结构</text></g></g><g id="minder_node23"><g id="node_expander23" style="cursor: pointer;"><path id="kity_path_232" fill="white" stroke="gray" d="M437.5,727.5A6,6,0,1,1,425.5,727.5A6,6,0,1,1,437.5,727.5"></path><path id="kity_path_233" fill="none" stroke="gray" d="M427,727.5L436,727.5"></path></g><path id="node_outline24" fill="none" stroke="none" d="M442.5,716.5h60a5,5,0,0,1,5,5v12a5,5,0,0,1,-5,5h-60a5,5,0,0,1,-5,-5v-12a5,5,0,0,1,5,-5z"></path><g id="node_text24" fill="black"><text id="kity_text_129" text-rendering="inherit" font-size="12" dy=".8em" y="719.7000000476837" x="447.5">数据关联</text></g></g><g id="minder_node24"><g id="node_expander22" style="cursor: pointer;"><path id="kity_path_229" fill="white" stroke="gray" d="M547.5,727.5A6,6,0,1,1,535.5,727.5A6,6,0,1,1,547.5,727.5"></path><path id="kity_path_230" fill="none" stroke="gray" d="M537,727.5L546,727.5"></path></g><path id="node_outline23" fill="none" stroke="none" d="M552.5,716.5h97a5,5,0,0,1,5,5v12a5,5,0,0,1,-5,5h-97a5,5,0,0,1,-5,-5v-12a5,5,0,0,1,5,-5z"></path><g id="node_text23" fill="black"><text id="kity_text_127" text-rendering="inherit" font-size="12" dy=".8em" y="719.7000000476837" x="557.5">DeepSORT算法</text></g></g><g id="minder_node25"><g id="node_expander21" style="cursor: pointer;" display="none"><path id="kity_path_226" fill="white" stroke="gray" d="M694.5,727.5A6,6,0,1,1,682.5,727.5A6,6,0,1,1,694.5,727.5"></path><path id="kity_path_227" fill="none" stroke="gray"></path></g><path id="node_outline22" fill="none" stroke="none" d="M699.5,716.5h240a5,5,0,0,1,5,5v12a5,5,0,0,1,-5,5h-240a5,5,0,0,1,-5,-5v-12a5,5,0,0,1,5,-5z"></path><g id="node_text22" fill="black"><text id="kity_text_125" text-rendering="inherit" font-size="12" dy=".8em" y="719.7000000476837" x="704.5">可以说自己没有写这块，只能说个大概流程</text></g></g><g id="minder_node26"><g id="node_expander27" style="cursor: pointer;"><path id="kity_path_244" fill="white" stroke="gray" d="M326.5,815.5A6,6,0,1,1,314.5,815.5A6,6,0,1,1,326.5,815.5"></path><path id="kity_path_245" fill="none" stroke="gray" d="M316,815.5L325,815.5"></path></g><path id="node_outline28" fill="rgb(238, 243, 246)" stroke="rgb(115, 161, 191)" d="M330.5,802.5h92a3,3,0,0,1,3,3v20a3,3,0,0,1,-3,3h-92a3,3,0,0,1,-3,-3v-20a3,3,0,0,1,3,-3z" stroke-width="1"></path><g id="node_text28" fill="black"><text id="kity_text_137" text-rendering="inherit" font-size="14" dy=".8em" y="806.4000000953674" x="347.5">评价指标</text></g></g><g id="minder_node27"><g id="node_expander25" style="cursor: pointer;" display="none"><path id="kity_path_238" fill="white" stroke="gray" d="M465.5,789.5A6,6,0,1,1,453.5,789.5A6,6,0,1,1,465.5,789.5"></path><path id="kity_path_239" fill="none" stroke="gray"></path></g><path id="node_outline26" fill="none" stroke="none" d="M470.5,778.5h116a5,5,0,0,1,5,5v12a5,5,0,0,1,-5,5h-116a5,5,0,0,1,-5,-5v-12a5,5,0,0,1,5,-5z"></path><g id="node_text26" fill="black"><text id="kity_text_133" text-rendering="inherit" font-size="12" dy=".8em" y="781.7000000476837" x="475.5">AP和AR的调和均值</text></g></g><g id="minder_node28"><g id="node_expander26" style="cursor: pointer;" display="none"><path id="kity_path_241" fill="white" stroke="gray" d="M465.5,841.5A6,6,0,1,1,453.5,841.5A6,6,0,1,1,465.5,841.5"></path><path id="kity_path_242" fill="none" stroke="gray"></path></g><path id="node_outline27" fill="none" stroke="none" d="M470.5,830.5h156a5,5,0,0,1,5,5v12a5,5,0,0,1,-5,5h-156a5,5,0,0,1,-5,-5v-12a5,5,0,0,1,5,-5z"></path><g id="node_text27" fill="black"><text id="kity_text_135" text-rendering="inherit" font-size="12" dy=".8em" y="833.7000000476837" x="475.5">MOTA和MOTP的调和均值</text></g></g><g id="minder_node29" opacity="1"><g id="node_expander28" style="cursor: pointer;"><path id="kity_path_252" fill="white" stroke="gray" d="M546.5,457.5A6,6,0,1,1,534.5,457.5A6,6,0,1,1,546.5,457.5"></path><path id="kity_path_253" fill="none" stroke="gray" d="M536,457.5L545,457.5"></path></g><path id="node_outline29" fill="none" stroke="none" d="M551.5,446.5h139a5,5,0,0,1,5,5v12a5,5,0,0,1,-5,5h-139a5,5,0,0,1,-5,-5v-12a5,5,0,0,1,5,-5z" stroke-width="3"></path><g id="node_text29" fill="black"><text id="kity_text_249" text-rendering="inherit" font-size="12" dy=".8em" y="449.7000000476837" x="556.5">patch内去除边缘目标框</text></g></g><g id="kity_g_12" display="none"><path id="kity_path_13" fill="none" stroke="rgb(66, 94, 112)" d="M551.5,446.5h222a5,5,0,0,1,5,5v12a5,5,0,0,1,-5,5h-222a5,5,0,0,1,-5,-5v-12a5,5,0,0,1,5,-5z" stroke-width="5"></path></g><g id="minder_node30"><g id="node_expander29" style="cursor: pointer;" display="none"><path id="kity_path_260" fill="white" stroke="gray" d="M735.5,457.5A6,6,0,1,1,723.5,457.5A6,6,0,1,1,735.5,457.5"></path><path id="kity_path_261" fill="none" stroke="gray"></path></g><path id="node_outline30" fill="none" stroke="none" d="M740.5,446.5h367a5,5,0,0,1,5,5v12a5,5,0,0,1,-5,5h-367a5,5,0,0,1,-5,-5v-12a5,5,0,0,1,5,-5z" stroke-width="3"></path><g id="node_text30" fill="black"><text id="kity_text_257" text-rendering="inherit" font-size="12" dy=".8em" y="449.7000000476837" x="745.5">因为为了提高召回率减少了阈值，但造成了patch边缘出现误检结果</text></g></g></g></g></svg>