<svg id="kity_svg_6" xmlns="http://www.w3.org/2000/svg" xmlns:xlink="http://www.w3.org/1999/xlink" version="1.1" width="1191" height="1716" style="background: rgb(251, 251, 251); visibility: visible;" viewBox="0 0 1191 1716"><defs id="kity_defs_7"><linearGradient id="kity_linearGradient_17" x1="0" y1="0" x2="0" y2="1"><stop id="kity_stop_18" offset="0" stop-color="rgb(255, 255, 255)"></stop><stop id="kity_stop_19" offset="1" stop-color="rgb(204, 204, 204)"></stop></linearGradient><marker id="kity_marker_2" orient="auto" refX="6" refY="0" viewBox="-7 -7 14 14" markerWidth="7" markerHeight="7" markerUnits="userSpaceOnUse"><path id="kity_path_3" fill="rgb(115, 161, 191)" stroke="none" d="M6,0A6,6,0,1,1,-6,0A6,6,0,1,1,6,0"></path></marker></defs><g id="kity_g_8"><g id="minder1" text-rendering="optimize-speed"><g id="minder_connect_group1"><path id="kity_path_31" fill="none" stroke="rgb(115, 161, 191)" stroke-width="1" d="M86,897.5A183.5,779,0,0,1,269.5,118.5"></path><path id="kity_path_49" fill="none" stroke="rgb(115, 161, 191)" stroke-width="1" d="M86,897.5A183.5,461,0,0,1,269.5,436.5"></path><path id="kity_path_51" fill="none" stroke="rgb(115, 161, 191)" stroke-width="1" d="M327.5,436.5C347.5,436.5,347.5,345.5,367.5,345.5"></path><path id="kity_path_53" fill="none" stroke="rgb(115, 161, 191)" stroke-width="1" d="M485.5,345.5C505.5,345.5,505.5,267.5,525.5,267.5"></path><path id="kity_path_55" fill="none" stroke="rgb(115, 161, 191)" stroke-width="1" d="M485.5,345.5C505.5,345.5,505.5,319.5,525.5,319.5"></path><path id="kity_path_57" fill="none" stroke="rgb(115, 161, 191)" stroke-width="1" d="M485.5,345.5C505.5,345.5,505.5,371.5,525.5,371.5"></path><path id="kity_path_59" fill="none" stroke="rgb(115, 161, 191)" stroke-width="1" d="M485.5,345.5C505.5,345.5,505.5,423.5,525.5,423.5"></path><path id="kity_path_61" fill="none" stroke="rgb(115, 161, 191)" stroke-width="1" d="M327.5,436.5C347.5,436.5,347.5,475.5,367.5,475.5"></path><path id="kity_path_63" fill="none" stroke="rgb(115, 161, 191)" stroke-width="1" d="M485.5,475.5C505.5,475.5,505.5,475.5,525.5,475.5"></path><path id="kity_path_65" fill="none" stroke="rgb(115, 161, 191)" stroke-width="1" d="M327.5,436.5C347.5,436.5,347.5,527.5,367.5,527.5"></path><path id="kity_path_67" fill="none" stroke="rgb(115, 161, 191)" stroke-width="1" d="M449.5,527.5C469.5,527.5,469.5,527.5,489.5,527.5"></path><path id="kity_path_69" fill="none" stroke="rgb(115, 161, 191)" stroke-width="1" d="M739.5,527.5C759.5,527.5,759.5,527.5,779.5,527.5"></path><path id="kity_path_71" fill="none" stroke="rgb(115, 161, 191)" stroke-width="1" d="M86,897.5A183.5,10,0,0,0,269.5,907.5"></path><path id="kity_path_73" fill="none" stroke="rgb(115, 161, 191)" stroke-width="1" d="M403.5,907.5C423.5,907.5,423.5,760.5,443.5,760.5"></path><path id="kity_path_75" fill="none" stroke="rgb(115, 161, 191)" stroke-width="1" d="M86,897.5A183.5,381,0,0,0,269.5,1278.5"></path><path id="kity_path_77" fill="none" stroke="rgb(115, 161, 191)" stroke-width="1" d="M86,897.5A183.5,595,0,0,0,269.5,1492.5"></path><path id="kity_path_224" fill="none" stroke="rgb(115, 161, 191)" stroke-width="1" d="M485.5,760.5C505.5,760.5,505.5,615.5,525.5,615.5"></path><path id="kity_path_232" fill="none" stroke="rgb(115, 161, 191)" stroke-width="1" d="M582.5,615.5C602.5,615.5,602.5,589.5,622.5,589.5"></path><path id="kity_path_240" fill="none" stroke="rgb(115, 161, 191)" stroke-width="1" d="M582.5,615.5C602.5,615.5,602.5,641.5,622.5,641.5"></path><path id="kity_path_248" fill="none" stroke="rgb(115, 161, 191)" stroke-width="1" d="M485.5,760.5C505.5,760.5,505.5,702.5,525.5,702.5"></path><path id="kity_path_257" fill="none" stroke="rgb(115, 161, 191)" stroke-width="1" d="M485.5,760.5C505.5,760.5,505.5,808.5,525.5,808.5"></path><path id="kity_path_286" fill="none" stroke="rgb(115, 161, 191)" stroke-width="1" d="M485.5,760.5C505.5,760.5,505.5,905.5,525.5,905.5"></path><path id="kity_path_294" fill="none" stroke="rgb(115, 161, 191)" stroke-width="1" d="M403.5,907.5C423.5,907.5,423.5,1054.5,443.5,1054.5"></path><path id="kity_path_339" fill="none" stroke="rgb(115, 161, 191)" stroke-width="1" d="M484.5,1054.5C504.5,1054.5,504.5,957.5,524.5,957.5"></path><path id="kity_path_394" fill="none" stroke="rgb(115, 161, 191)" stroke-width="1" d="M484.5,1054.5C504.5,1054.5,504.5,1054.5,524.5,1054.5"></path><path id="kity_path_407" fill="none" stroke="rgb(115, 161, 191)" stroke-width="1" d="M484.5,1054.5C504.5,1054.5,504.5,1151.5,524.5,1151.5"></path><path id="kity_path_415" fill="none" stroke="rgb(115, 161, 191)" stroke-width="1" d="M369.5,1278.5C389.5,1278.5,389.5,1239.5,409.5,1239.5"></path><path id="kity_path_423" fill="none" stroke="rgb(115, 161, 191)" stroke-width="1" d="M599.5,1239.5C619.5,1239.5,619.5,1213.5,639.5,1213.5"></path><path id="kity_path_431" fill="none" stroke="rgb(115, 161, 191)" stroke-width="1" d="M599.5,1239.5C619.5,1239.5,619.5,1265.5,639.5,1265.5"></path><path id="kity_path_439" fill="none" stroke="rgb(115, 161, 191)" stroke-width="1" d="M369.5,1278.5C389.5,1278.5,389.5,1317.5,409.5,1317.5"></path><path id="kity_path_447" fill="none" stroke="rgb(115, 161, 191)" stroke-width="1" d="M341.5,1492.5C361.5,1492.5,361.5,1379.5,381.5,1379.5"></path><path id="kity_path_455" fill="none" stroke="rgb(115, 161, 191)" stroke-width="1" d="M499.5,1379.5C519.5,1379.5,519.5,1379.5,539.5,1379.5"></path><path id="kity_path_463" fill="none" stroke="rgb(115, 161, 191)" stroke-width="1" d="M341.5,1492.5C361.5,1492.5,361.5,1440.5,381.5,1440.5"></path><path id="kity_path_471" fill="none" stroke="rgb(115, 161, 191)" stroke-width="1" d="M535.5,1440.5C555.5,1440.5,555.5,1440.5,575.5,1440.5"></path><path id="kity_path_480" fill="none" stroke="rgb(115, 161, 191)" stroke-width="1" d="M341.5,1492.5C361.5,1492.5,361.5,1501.5,381.5,1501.5"></path><path id="kity_path_488" fill="none" stroke="rgb(115, 161, 191)" stroke-width="1" d="M341.5,1492.5C361.5,1492.5,361.5,1553.5,381.5,1553.5"></path><path id="kity_path_496" fill="none" stroke="rgb(115, 161, 191)" stroke-width="1" d="M341.5,1492.5C361.5,1492.5,361.5,1605.5,381.5,1605.5"></path><path id="kity_path_504" fill="none" stroke="rgb(115, 161, 191)" stroke-width="1" d="M86,897.5A183.5,779,0,0,0,269.5,1676.5"></path><path id="kity_path_512" fill="none" stroke="rgb(115, 161, 191)" stroke-width="1" d="M453.5,1676.5C473.5,1676.5,473.5,1676.5,493.5,1676.5"></path><path id="kity_path_520" fill="none" stroke="rgb(115, 161, 191)" stroke-width="1" d="M548.5,40.5C568.5,40.5,568.5,40.5,588.5,40.5"></path><path id="kity_path_521" fill="none" stroke="rgb(115, 161, 191)" stroke-width="1" d="M341.5,118.5C361.5,118.5,361.5,40.5,381.5,40.5"></path><path id="kity_path_522" fill="none" stroke="rgb(115, 161, 191)" stroke-width="1" d="M463.5,101.5C483.5,101.5,483.5,101.5,503.5,101.5"></path><path id="kity_path_523" fill="none" stroke="rgb(115, 161, 191)" stroke-width="1" d="M341.5,118.5C361.5,118.5,361.5,101.5,381.5,101.5"></path><path id="kity_path_524" fill="none" stroke="rgb(115, 161, 191)" stroke-width="1" d="M748.5,153.5C768.5,153.5,768.5,153.5,788.5,153.5"></path><path id="kity_path_525" fill="none" stroke="rgb(115, 161, 191)" stroke-width="1" d="M463.5,153.5C483.5,153.5,483.5,153.5,503.5,153.5"></path><path id="kity_path_526" fill="none" stroke="rgb(115, 161, 191)" stroke-width="1" d="M341.5,118.5C361.5,118.5,361.5,153.5,381.5,153.5"></path><path id="kity_path_527" fill="none" stroke="rgb(115, 161, 191)" stroke-width="1" d="M341.5,118.5C361.5,118.5,361.5,205.5,381.5,205.5"></path></g><g id="minder_node1"><path id="node_outline1" fill="rgb(115, 161, 191)" stroke="rgb(115, 161, 191)" d="M25.5,877.5h121a5,5,0,0,1,5,5v30a5,5,0,0,1,-5,5h-121a5,5,0,0,1,-5,-5v-30a5,5,0,0,1,5,-5z" stroke-width="3"></path><g id="node_text1" fill="white"><text id="kity_text_22" text-rendering="inherit" font-size="16" dy=".8em" y="887.0999999046326" x="44.5">Qt信号和槽</text></g></g><g id="kity_g_12" display="none"><path id="kity_path_13" fill="none" stroke="none" d="M44.5,897.5h0v0h0z"></path></g><g id="kity_g_14" display="none"><path id="kity_path_15" fill="none" stroke="none" d="M44.5,897.5h0v0h0z"></path><path id="kity_path_16" fill="none" stroke="none"></path></g><g id="minder_node2" opacity="1"><g id="node_expander9" style="cursor: pointer;"><path id="kity_path_176" fill="white" stroke="gray" d="M270.5,118.5A6,6,0,1,1,258.5,118.5A6,6,0,1,1,270.5,118.5"></path><path id="kity_path_177" fill="none" stroke="gray" d="M260,118.5L269,118.5"></path></g><path id="node_outline10" fill="rgb(238, 243, 246)" stroke="rgb(115, 161, 191)" d="M274.5,105.5h64a3,3,0,0,1,3,3v20a3,3,0,0,1,-3,3h-64a3,3,0,0,1,-3,-3v-20a3,3,0,0,1,3,-3z" stroke-width="1"></path><g id="node_text10" fill="black"><text id="kity_text_96" text-rendering="inherit" font-size="14" dy=".8em" y="109.40000009536743" x="291.5">信号</text></g></g><g id="minder_node11"><g id="node_expander20" style="cursor: pointer;"><path id="kity_path_209" fill="white" stroke="gray" d="M270.5,436.5A6,6,0,1,1,258.5,436.5A6,6,0,1,1,270.5,436.5"></path><path id="kity_path_210" fill="none" stroke="gray" d="M260,436.5L269,436.5"></path></g><path id="node_outline21" fill="rgb(238, 243, 246)" stroke="rgb(115, 161, 191)" d="M274.5,423.5h50a3,3,0,0,1,3,3v20a3,3,0,0,1,-3,3h-50a3,3,0,0,1,-3,-3v-20a3,3,0,0,1,3,-3z" stroke-width="1"></path><g id="node_text21" fill="black"><text id="kity_text_118" text-rendering="inherit" font-size="14" dy=".8em" y="427.40000009536743" x="291.5">槽</text></g></g><g id="minder_node12"><g id="node_expander14" style="cursor: pointer;"><path id="kity_path_191" fill="white" stroke="gray" d="M367.5,345.5A6,6,0,1,1,355.5,345.5A6,6,0,1,1,367.5,345.5"></path><path id="kity_path_192" fill="none" stroke="gray" d="M357,345.5L366,345.5"></path></g><path id="node_outline15" fill="none" stroke="none" d="M372.5,334.5h108a5,5,0,0,1,5,5v12a5,5,0,0,1,-5,5h-108a5,5,0,0,1,-5,-5v-12a5,5,0,0,1,5,-5z" stroke-width="3"></path><g id="node_text15" fill="black"><text id="kity_text_106" text-rendering="inherit" font-size="12" dy=".8em" y="337.7000000476837" x="377.5">可以自定义槽函数</text></g></g><g id="minder_node13"><g id="node_expander10" style="cursor: pointer;" display="none"><path id="kity_path_179" fill="white" stroke="gray" d="M525.5,267.5A6,6,0,1,1,513.5,267.5A6,6,0,1,1,525.5,267.5"></path><path id="kity_path_180" fill="none" stroke="gray"></path></g><path id="node_outline11" fill="none" stroke="none" d="M530.5,256.5h108a5,5,0,0,1,5,5v12a5,5,0,0,1,-5,5h-108a5,5,0,0,1,-5,-5v-12a5,5,0,0,1,5,-5z" stroke-width="3"></path><g id="node_text11" fill="black"><text id="kity_text_98" text-rendering="inherit" font-size="12" dy=".8em" y="259.7000000476837" x="535.5">类的任意成员变量</text></g></g><g id="minder_node14"><g id="node_expander11" style="cursor: pointer;" display="none"><path id="kity_path_182" fill="white" stroke="gray" d="M525.5,319.5A6,6,0,1,1,513.5,319.5A6,6,0,1,1,525.5,319.5"></path><path id="kity_path_183" fill="none" stroke="gray"></path></g><path id="node_outline12" fill="none" stroke="none" d="M530.5,308.5h60a5,5,0,0,1,5,5v12a5,5,0,0,1,-5,5h-60a5,5,0,0,1,-5,-5v-12a5,5,0,0,1,5,-5z" stroke-width="3"></path><g id="node_text12" fill="black"><text id="kity_text_100" text-rendering="inherit" font-size="12" dy=".8em" y="311.7000000476837" x="535.5">静态函数</text></g></g><g id="minder_node15"><g id="node_expander12" style="cursor: pointer;" display="none"><path id="kity_path_185" fill="white" stroke="gray" d="M525.5,371.5A6,6,0,1,1,513.5,371.5A6,6,0,1,1,525.5,371.5"></path><path id="kity_path_186" fill="none" stroke="gray"></path></g><path id="node_outline13" fill="none" stroke="none" d="M530.5,360.5h60a5,5,0,0,1,5,5v12a5,5,0,0,1,-5,5h-60a5,5,0,0,1,-5,-5v-12a5,5,0,0,1,5,-5z" stroke-width="3"></path><g id="node_text13" fill="black"><text id="kity_text_102" text-rendering="inherit" font-size="12" dy=".8em" y="363.7000000476837" x="535.5">全局函数</text></g></g><g id="minder_node16"><g id="node_expander13" style="cursor: pointer;" display="none"><path id="kity_path_188" fill="white" stroke="gray" d="M525.5,423.5A6,6,0,1,1,513.5,423.5A6,6,0,1,1,525.5,423.5"></path><path id="kity_path_189" fill="none" stroke="gray"></path></g><path id="node_outline14" fill="none" stroke="none" d="M530.5,412.5h90a5,5,0,0,1,5,5v12a5,5,0,0,1,-5,5h-90a5,5,0,0,1,-5,-5v-12a5,5,0,0,1,5,-5z" stroke-width="3"></path><g id="node_text14" fill="black"><text id="kity_text_104" text-rendering="inherit" font-size="12" dy=".8em" y="415.7000000476837" x="535.5">lambda表达式</text></g></g><g id="minder_node17"><g id="node_expander16" style="cursor: pointer;"><path id="kity_path_197" fill="white" stroke="gray" d="M367.5,475.5A6,6,0,1,1,355.5,475.5A6,6,0,1,1,367.5,475.5"></path><path id="kity_path_198" fill="none" stroke="gray" d="M357,475.5L366,475.5"></path></g><path id="node_outline17" fill="none" stroke="none" d="M372.5,464.5h108a5,5,0,0,1,5,5v12a5,5,0,0,1,-5,5h-108a5,5,0,0,1,-5,-5v-12a5,5,0,0,1,5,-5z" stroke-width="3"></path><g id="node_text17" fill="black"><text id="kity_text_110" text-rendering="inherit" font-size="12" dy=".8em" y="467.7000000476837" x="377.5">槽函数没有返回值</text></g></g><g id="minder_node18"><g id="node_expander15" style="cursor: pointer;" display="none"><path id="kity_path_194" fill="white" stroke="gray" d="M525.5,475.5A6,6,0,1,1,513.5,475.5A6,6,0,1,1,525.5,475.5"></path><path id="kity_path_195" fill="none" stroke="gray"></path></g><path id="node_outline16" fill="none" stroke="none" d="M530.5,464.5h61a5,5,0,0,1,5,5v12a5,5,0,0,1,-5,5h-61a5,5,0,0,1,-5,-5v-12a5,5,0,0,1,5,-5z" stroke-width="3"></path><g id="node_text16" fill="black"><text id="kity_text_108" text-rendering="inherit" font-size="12" dy=".8em" y="467.7000000476837" x="535.5">void类型</text></g></g><g id="minder_node19"><g id="node_expander19" style="cursor: pointer;"><path id="kity_path_206" fill="white" stroke="gray" d="M367.5,527.5A6,6,0,1,1,355.5,527.5A6,6,0,1,1,367.5,527.5"></path><path id="kity_path_207" fill="none" stroke="gray" d="M357,527.5L366,527.5"></path></g><path id="node_outline20" fill="none" stroke="none" d="M372.5,516.5h72a5,5,0,0,1,5,5v12a5,5,0,0,1,-5,5h-72a5,5,0,0,1,-5,-5v-12a5,5,0,0,1,5,-5z" stroke-width="3"></path><g id="node_text20" fill="black"><text id="kity_text_116" text-rendering="inherit" font-size="12" dy=".8em" y="519.7000000476837" x="377.5">可以带参数</text></g></g><g id="minder_node20"><g id="node_expander18" style="cursor: pointer;"><path id="kity_path_203" fill="white" stroke="gray" d="M489.5,527.5A6,6,0,1,1,477.5,527.5A6,6,0,1,1,489.5,527.5"></path><path id="kity_path_204" fill="none" stroke="gray" d="M479,527.5L488,527.5"></path></g><path id="node_outline19" fill="none" stroke="none" d="M494.5,516.5h240a5,5,0,0,1,5,5v12a5,5,0,0,1,-5,5h-240a5,5,0,0,1,-5,-5v-12a5,5,0,0,1,5,-5z" stroke-width="3"></path><g id="node_text19" fill="black"><text id="kity_text_114" text-rendering="inherit" font-size="12" dy=".8em" y="519.7000000476837" x="499.5">void slot1(int, double, QString, QImage)</text></g></g><g id="minder_node21"><g id="node_expander17" style="cursor: pointer;" display="none"><path id="kity_path_200" fill="white" stroke="gray" d="M779.5,527.5A6,6,0,1,1,767.5,527.5A6,6,0,1,1,779.5,527.5"></path><path id="kity_path_201" fill="none" stroke="gray"></path></g><path id="node_outline18" fill="none" stroke="none" d="M784.5,516.5h276a5,5,0,0,1,5,5v12a5,5,0,0,1,-5,5h-276a5,5,0,0,1,-5,-5v-12a5,5,0,0,1,5,-5z" stroke-width="3"></path><g id="node_text18" fill="black"><text id="kity_text_112" text-rendering="inherit" font-size="12" dy=".8em" y="519.7000000476837" x="789.5">与信号的参数一一对应，不过参数可以比信号的少</text></g></g><g id="minder_node22"><g id="node_expander22" style="cursor: pointer;"><path id="kity_path_215" fill="white" stroke="gray" d="M270.5,907.5A6,6,0,1,1,258.5,907.5A6,6,0,1,1,270.5,907.5"></path><path id="kity_path_216" fill="none" stroke="gray" d="M260,907.5L269,907.5"></path></g><path id="node_outline23" fill="rgb(238, 243, 246)" stroke="rgb(115, 161, 191)" d="M274.5,894.5h126a3,3,0,0,1,3,3v20a3,3,0,0,1,-3,3h-126a3,3,0,0,1,-3,-3v-20a3,3,0,0,1,3,-3z" stroke-width="1"></path><g id="node_text23" fill="black"><text id="kity_text_122" text-rendering="inherit" font-size="14" dy=".8em" y="898.4000000953674" x="291.5">连接(connect)</text></g></g><g id="minder_node23"><g id="node_expander21" style="cursor: pointer;"><path id="kity_path_212" fill="white" stroke="gray" d="M443.5,760.5A6,6,0,1,1,431.5,760.5A6,6,0,1,1,443.5,760.5"></path><path id="kity_path_213" fill="none" stroke="gray" d="M433,760.5L442,760.5"></path></g><path id="node_outline22" fill="none" stroke="none" d="M448.5,749.5h32a5,5,0,0,1,5,5v12a5,5,0,0,1,-5,5h-32a5,5,0,0,1,-5,-5v-12a5,5,0,0,1,5,-5z" stroke-width="3"></path><g id="node_text22" fill="black"><text id="kity_text_120" text-rendering="inherit" font-size="12" dy=".8em" y="752.7000000476837" x="453.5">Qt4</text></g></g><g id="minder_node24"><g id="node_expander23" style="cursor: pointer;"><path id="kity_path_218" fill="white" stroke="gray" d="M270.5,1278.5A6,6,0,1,1,258.5,1278.5A6,6,0,1,1,270.5,1278.5"></path><path id="kity_path_219" fill="none" stroke="gray" d="M260,1278.5L269,1278.5"></path></g><path id="node_outline24" fill="rgb(238, 243, 246)" stroke="rgb(115, 161, 191)" d="M274.5,1265.5h92a3,3,0,0,1,3,3v20a3,3,0,0,1,-3,3h-92a3,3,0,0,1,-3,-3v-20a3,3,0,0,1,3,-3z" stroke-width="1"></path><g id="node_text24" fill="black"><text id="kity_text_124" text-rendering="inherit" font-size="14" dy=".8em" y="1269.4000000953674" x="291.5">注意事项</text></g></g><g id="minder_node25"><g id="node_expander24" style="cursor: pointer;"><path id="kity_path_221" fill="white" stroke="gray" d="M270.5,1492.5A6,6,0,1,1,258.5,1492.5A6,6,0,1,1,270.5,1492.5"></path><path id="kity_path_222" fill="none" stroke="gray" d="M260,1492.5L269,1492.5"></path></g><path id="node_outline25" fill="rgb(238, 243, 246)" stroke="rgb(115, 161, 191)" d="M274.5,1479.5h64a3,3,0,0,1,3,3v20a3,3,0,0,1,-3,3h-64a3,3,0,0,1,-3,-3v-20a3,3,0,0,1,3,-3z" stroke-width="1"></path><g id="node_text25" fill="black"><text id="kity_text_126" text-rendering="inherit" font-size="14" dy=".8em" y="1483.4000000953674" x="291.5">扩展</text></g></g><g id="minder_node26"><g id="node_expander25" style="cursor: pointer;"><path id="kity_path_229" fill="white" stroke="gray" d="M525.5,615.5A6,6,0,1,1,513.5,615.5A6,6,0,1,1,525.5,615.5"></path><path id="kity_path_230" fill="none" stroke="gray" d="M515,615.5L524,615.5"></path></g><path id="node_outline26" fill="none" stroke="none" d="M530.5,604.5h47a5,5,0,0,1,5,5v12a5,5,0,0,1,-5,5h-47a5,5,0,0,1,-5,-5v-12a5,5,0,0,1,5,-5z" stroke-width="3"></path><g id="node_text26" fill="black"><text id="kity_text_226" text-rendering="inherit" font-size="12" dy=".8em" y="607.7000000476837" x="535.5">通过宏</text></g></g><g id="minder_node27"><g id="node_expander26" style="cursor: pointer;" display="none"><path id="kity_path_237" fill="white" stroke="gray" d="M622.5,589.5A6,6,0,1,1,610.5,589.5A6,6,0,1,1,622.5,589.5"></path><path id="kity_path_238" fill="none" stroke="gray"></path></g><path id="node_outline27" fill="none" stroke="none" d="M627.5,578.5h55a5,5,0,0,1,5,5v12a5,5,0,0,1,-5,5h-55a5,5,0,0,1,-5,-5v-12a5,5,0,0,1,5,-5z" stroke-width="3"></path><g id="node_text27" fill="black"><text id="kity_text_234" text-rendering="inherit" font-size="12" dy=".8em" y="581.7000000476837" x="632.5">SIGNAL</text></g></g><g id="minder_node28"><g id="node_expander27" style="cursor: pointer;" display="none"><path id="kity_path_245" fill="white" stroke="gray" d="M622.5,641.5A6,6,0,1,1,610.5,641.5A6,6,0,1,1,622.5,641.5"></path><path id="kity_path_246" fill="none" stroke="gray"></path></g><path id="node_outline28" fill="none" stroke="none" d="M627.5,630.5h40a5,5,0,0,1,5,5v12a5,5,0,0,1,-5,5h-40a5,5,0,0,1,-5,-5v-12a5,5,0,0,1,5,-5z" stroke-width="3"></path><g id="node_text28" fill="black"><text id="kity_text_242" text-rendering="inherit" font-size="12" dy=".8em" y="633.7000000476837" x="632.5">SLOT</text></g></g><g id="minder_node29"><g id="node_expander28" style="cursor: pointer;" display="none"><path id="kity_path_253" fill="white" stroke="gray" d="M525.5,702.5A6,6,0,1,1,513.5,702.5A6,6,0,1,1,525.5,702.5"></path><path id="kity_path_254" fill="none" stroke="gray"></path></g><path id="node_outline29" fill="none" stroke="none" d="M530.5,682.5h261a5,5,0,0,1,5,5v30a5,5,0,0,1,-5,5h-261a5,5,0,0,1,-5,-5v-30a5,5,0,0,1,5,-5z" stroke-width="3"></path><g id="node_text29" fill="black"><text id="kity_text_250" text-rendering="inherit" font-size="12" dy=".8em" y="685.7000000476837" x="535.5">SIGNAL()/SLOT()两个宏将函数体转为字符串，</text><text id="kity_text_255" text-rendering="inherit" font-size="12" dy=".8em" y="703.7000000476837" x="535.5">标记处该函数是信号还是槽</text></g></g><g id="minder_node30"><g id="node_expander29" style="cursor: pointer;" display="none"><path id="kity_path_262" fill="white" stroke="gray" d="M525.5,808.5A6,6,0,1,1,513.5,808.5A6,6,0,1,1,525.5,808.5"></path><path id="kity_path_263" fill="none" stroke="gray"></path></g><path id="node_outline30" fill="none" stroke="none" d="M530.5,752.5h253a5,5,0,0,1,5,5v102a5,5,0,0,1,-5,5h-253a5,5,0,0,1,-5,-5v-102a5,5,0,0,1,5,-5z" stroke-width="3"></path><g id="node_text30" fill="black"><text id="kity_text_259" text-rendering="inherit" font-size="12" dy=".8em" y="755.7000000476837" x="535.5">connect(</text><text id="kity_text_280" text-rendering="inherit" font-size="12" dy=".8em" y="773.7000000476837" x="535.5">&#xa0; sender,</text><text id="kity_text_281" text-rendering="inherit" font-size="12" dy=".8em" y="791.7000000476837" x="535.5">&#xa0; SIGNAL(sig1(int,double,QString,QImage),</text><text id="kity_text_282" text-rendering="inherit" font-size="12" dy=".8em" y="809.7000000476837" x="535.5">&#xa0; receiver,</text><text id="kity_text_283" text-rendering="inherit" font-size="12" dy=".8em" y="827.7000000476837" x="535.5">&#xa0; SLOT(slot1(int,double,QString,QImage)</text><text id="kity_text_284" text-rendering="inherit" font-size="12" dy=".8em" y="845.7000000476837" x="535.5">);</text></g></g><g id="minder_node33"><g id="node_expander32" style="cursor: pointer;" display="none"><path id="kity_path_291" fill="white" stroke="gray" d="M525.5,905.5A6,6,0,1,1,513.5,905.5A6,6,0,1,1,525.5,905.5"></path><path id="kity_path_292" fill="none" stroke="gray"></path></g><path id="node_outline33" fill="none" stroke="none" d="M530.5,894.5h180a5,5,0,0,1,5,5v12a5,5,0,0,1,-5,5h-180a5,5,0,0,1,-5,-5v-12a5,5,0,0,1,5,-5z" stroke-width="3"></path><g id="node_text33" fill="black"><text id="kity_text_288" text-rendering="inherit" font-size="12" dy=".8em" y="897.7000000476837" x="535.5">缺点：编译时不会继续错误检查</text></g></g><g id="minder_node34"><g id="node_expander33" style="cursor: pointer;"><path id="kity_path_299" fill="white" stroke="gray" d="M443.5,1054.5A6,6,0,1,1,431.5,1054.5A6,6,0,1,1,443.5,1054.5"></path><path id="kity_path_300" fill="none" stroke="gray" d="M433,1054.5L442,1054.5"></path></g><path id="node_outline34" fill="none" stroke="none" d="M448.5,1043.5h31a5,5,0,0,1,5,5v12a5,5,0,0,1,-5,5h-31a5,5,0,0,1,-5,-5v-12a5,5,0,0,1,5,-5z" stroke-width="3"></path><g id="node_text34" fill="black"><text id="kity_text_296" text-rendering="inherit" font-size="12" dy=".8em" y="1046.7000000476837" x="453.5">Qt5</text></g></g><g id="minder_node39"><g id="node_expander39" style="cursor: pointer;" display="none"><path id="kity_path_357" fill="white" stroke="gray" d="M524.5,957.5A6,6,0,1,1,512.5,957.5A6,6,0,1,1,524.5,957.5"></path><path id="kity_path_358" fill="none" stroke="gray" d="M514,957.5L523,957.5"></path></g><path id="node_outline40" fill="none" stroke="none" d="M529.5,946.5h215a5,5,0,0,1,5,5v12a5,5,0,0,1,-5,5h-215a5,5,0,0,1,-5,-5v-12a5,5,0,0,1,5,-5z" stroke-width="3"></path><g id="node_text40" fill="black"><text id="kity_text_350" text-rendering="inherit" font-size="12" dy=".8em" y="949.7000000476837" x="534.5">信号槽直接使用函数地址，而不使用宏</text></g></g><g id="minder_node44"><g id="node_expander43" style="cursor: pointer;" display="none"><path id="kity_path_404" fill="white" stroke="gray" d="M524.5,1054.5A6,6,0,1,1,512.5,1054.5A6,6,0,1,1,524.5,1054.5"></path><path id="kity_path_405" fill="none" stroke="gray"></path></g><path id="node_outline44" fill="none" stroke="none" d="M529.5,998.5h200a5,5,0,0,1,5,5v102a5,5,0,0,1,-5,5h-200a5,5,0,0,1,-5,-5v-102a5,5,0,0,1,5,-5z" stroke-width="3"></path><g id="node_text44" fill="black"><text id="kity_text_396" text-rendering="inherit" font-size="12" dy=".8em" y="1001.7000000476837" x="534.5">connect(</text><text id="kity_text_397" text-rendering="inherit" font-size="12" dy=".8em" y="1019.7000000476837" x="534.5">&#xa0; sender, // 信号发出者</text><text id="kity_text_398" text-rendering="inherit" font-size="12" dy=".8em" y="1037.7000000476837" x="534.5">&#xa0; &amp;Sender::sig1, // 信号</text><text id="kity_text_399" text-rendering="inherit" font-size="12" dy=".8em" y="1055.7000000476837" x="534.5">&#xa0; receiver, // 信号接受者</text><text id="kity_text_400" text-rendering="inherit" font-size="12" dy=".8em" y="1073.7000000476837" x="534.5">&#xa0; &amp;Receiver::slot1 // 信号处理函数</text><text id="kity_text_401" text-rendering="inherit" font-size="12" dy=".8em" y="1091.7000000476837" x="534.5">);</text></g></g><g id="minder_node45"><g id="node_expander44" style="cursor: pointer;" display="none"><path id="kity_path_412" fill="white" stroke="gray" d="M524.5,1151.5A6,6,0,1,1,512.5,1151.5A6,6,0,1,1,524.5,1151.5"></path><path id="kity_path_413" fill="none" stroke="gray"></path></g><path id="node_outline45" fill="none" stroke="none" d="M529.5,1140.5h252a5,5,0,0,1,5,5v12a5,5,0,0,1,-5,5h-252a5,5,0,0,1,-5,-5v-12a5,5,0,0,1,5,-5z" stroke-width="3"></path><g id="node_text45" fill="black"><text id="kity_text_409" text-rendering="inherit" font-size="12" dy=".8em" y="1143.7000000476837" x="534.5">优点：编译过程会对函数类型、个数进行检查</text></g></g><g id="minder_node46"><g id="node_expander45" style="cursor: pointer;"><path id="kity_path_420" fill="white" stroke="gray" d="M409.5,1239.5A6,6,0,1,1,397.5,1239.5A6,6,0,1,1,409.5,1239.5"></path><path id="kity_path_421" fill="none" stroke="gray" d="M399,1239.5L408,1239.5"></path></g><path id="node_outline46" fill="none" stroke="none" d="M414.5,1228.5h180a5,5,0,0,1,5,5v12a5,5,0,0,1,-5,5h-180a5,5,0,0,1,-5,-5v-12a5,5,0,0,1,5,-5z" stroke-width="3"></path><g id="node_text46" fill="black"><text id="kity_text_417" text-rendering="inherit" font-size="12" dy=".8em" y="1231.7000000476837" x="419.5">信号、槽的参数个数可以不一样</text></g></g><g id="minder_node47"><g id="node_expander46" style="cursor: pointer;" display="none"><path id="kity_path_428" fill="white" stroke="gray" d="M639.5,1213.5A6,6,0,1,1,627.5,1213.5A6,6,0,1,1,639.5,1213.5"></path><path id="kity_path_429" fill="none" stroke="gray"></path></g><path id="node_outline47" fill="none" stroke="none" d="M644.5,1202.5h228a5,5,0,0,1,5,5v12a5,5,0,0,1,-5,5h-228a5,5,0,0,1,-5,-5v-12a5,5,0,0,1,5,-5z" stroke-width="3"></path><g id="node_text47" fill="black"><text id="kity_text_425" text-rendering="inherit" font-size="12" dy=".8em" y="1205.7000000476837" x="649.5">槽函数参数个数可以少于信号的参数个数</text></g></g><g id="minder_node48"><g id="node_expander47" style="cursor: pointer;" display="none"><path id="kity_path_436" fill="white" stroke="gray" d="M639.5,1265.5A6,6,0,1,1,627.5,1265.5A6,6,0,1,1,639.5,1265.5"></path><path id="kity_path_437" fill="none" stroke="gray"></path></g><path id="node_outline48" fill="none" stroke="none" d="M644.5,1254.5h180a5,5,0,0,1,5,5v12a5,5,0,0,1,-5,5h-180a5,5,0,0,1,-5,-5v-12a5,5,0,0,1,5,-5z" stroke-width="3"></path><g id="node_text48" fill="black"><text id="kity_text_433" text-rendering="inherit" font-size="12" dy=".8em" y="1257.7000000476837" x="649.5">但信号不可以少于槽的参数个数</text></g></g><g id="minder_node49"><g id="node_expander48" style="cursor: pointer;" display="none"><path id="kity_path_444" fill="white" stroke="gray" d="M409.5,1317.5A6,6,0,1,1,397.5,1317.5A6,6,0,1,1,409.5,1317.5"></path><path id="kity_path_445" fill="none" stroke="gray"></path></g><path id="node_outline49" fill="none" stroke="none" d="M414.5,1306.5h167a5,5,0,0,1,5,5v12a5,5,0,0,1,-5,5h-167a5,5,0,0,1,-5,-5v-12a5,5,0,0,1,5,-5z" stroke-width="3"></path><g id="node_text49" fill="black"><text id="kity_text_441" text-rendering="inherit" font-size="12" dy=".8em" y="1309.7000000476837" x="419.5">信号、槽的参数必须一一对应</text></g></g><g id="minder_node50"><g id="node_expander49" style="cursor: pointer;"><path id="kity_path_452" fill="white" stroke="gray" d="M381.5,1379.5A6,6,0,1,1,369.5,1379.5A6,6,0,1,1,381.5,1379.5"></path><path id="kity_path_453" fill="none" stroke="gray" d="M371,1379.5L380,1379.5"></path></g><path id="node_outline50" fill="none" stroke="none" d="M386.5,1368.5h108a5,5,0,0,1,5,5v12a5,5,0,0,1,-5,5h-108a5,5,0,0,1,-5,-5v-12a5,5,0,0,1,5,-5z" stroke-width="3"></path><g id="node_text50" fill="black"><text id="kity_text_449" text-rendering="inherit" font-size="12" dy=".8em" y="1371.7000000476837" x="391.5">信号可以连接信号</text></g></g><g id="minder_node51"><g id="node_expander50" style="cursor: pointer;" display="none"><path id="kity_path_460" fill="white" stroke="gray" d="M539.5,1379.5A6,6,0,1,1,527.5,1379.5A6,6,0,1,1,539.5,1379.5"></path><path id="kity_path_461" fill="none" stroke="gray"></path></g><path id="node_outline51" fill="none" stroke="none" d="M544.5,1368.5h155a5,5,0,0,1,5,5v12a5,5,0,0,1,-5,5h-155a5,5,0,0,1,-5,-5v-12a5,5,0,0,1,5,-5z" stroke-width="3"></path><g id="node_text51" fill="black"><text id="kity_text_457" text-rendering="inherit" font-size="12" dy=".8em" y="1371.7000000476837" x="549.5">因为信号和槽本身都是函数</text></g></g><g id="minder_node52"><g id="node_expander51" style="cursor: pointer;"><path id="kity_path_468" fill="white" stroke="gray" d="M381.5,1440.5A6,6,0,1,1,369.5,1440.5A6,6,0,1,1,381.5,1440.5"></path><path id="kity_path_469" fill="none" stroke="gray" d="M371,1440.5L380,1440.5"></path></g><path id="node_outline52" fill="none" stroke="none" d="M386.5,1429.5h144a5,5,0,0,1,5,5v12a5,5,0,0,1,-5,5h-144a5,5,0,0,1,-5,-5v-12a5,5,0,0,1,5,-5z" stroke-width="3"></path><g id="node_text52" fill="black"><text id="kity_text_465" text-rendering="inherit" font-size="12" dy=".8em" y="1432.7000000476837" x="391.5">一个信号可以连接多个槽</text></g></g><g id="minder_node53"><g id="node_expander52" style="cursor: pointer;" display="none"><path id="kity_path_476" fill="white" stroke="gray" d="M575.5,1440.5A6,6,0,1,1,563.5,1440.5A6,6,0,1,1,575.5,1440.5"></path><path id="kity_path_477" fill="none" stroke="gray"></path></g><path id="node_outline53" fill="none" stroke="none" d="M580.5,1420.5h586a5,5,0,0,1,5,5v30a5,5,0,0,1,-5,5h-586a5,5,0,0,1,-5,-5v-30a5,5,0,0,1,5,-5z" stroke-width="3"></path><g id="node_text53" fill="black"><text id="kity_text_473" text-rendering="inherit" font-size="12" dy=".8em" y="1423.7000000476837" x="585.5">槽的执行顺序是随机的，不能控制</text><text id="kity_text_478" text-rendering="inherit" font-size="12" dy=".8em" y="1441.7000000476837" x="585.5">（看上文解析：根据连接方式可以分为直连、队列连接、阻塞队列连接，分别对应直接函数回调和异步调用）</text></g></g><g id="minder_node54"><g id="node_expander53" style="cursor: pointer;" display="none"><path id="kity_path_485" fill="white" stroke="gray" d="M381.5,1501.5A6,6,0,1,1,369.5,1501.5A6,6,0,1,1,381.5,1501.5"></path><path id="kity_path_486" fill="none" stroke="gray"></path></g><path id="node_outline54" fill="none" stroke="none" d="M386.5,1490.5h168a5,5,0,0,1,5,5v12a5,5,0,0,1,-5,5h-168a5,5,0,0,1,-5,-5v-12a5,5,0,0,1,5,-5z" stroke-width="3"></path><g id="node_text54" fill="black"><text id="kity_text_482" text-rendering="inherit" font-size="12" dy=".8em" y="1493.7000000476837" x="391.5">一个槽可以同时连接多个信号</text></g></g><g id="minder_node55"><g id="node_expander54" style="cursor: pointer;" display="none"><path id="kity_path_493" fill="white" stroke="gray" d="M381.5,1553.5A6,6,0,1,1,369.5,1553.5A6,6,0,1,1,381.5,1553.5"></path><path id="kity_path_494" fill="none" stroke="gray"></path></g><path id="node_outline55" fill="none" stroke="none" d="M386.5,1542.5h385a5,5,0,0,1,5,5v12a5,5,0,0,1,-5,5h-385a5,5,0,0,1,-5,-5v-12a5,5,0,0,1,5,-5z" stroke-width="3"></path><g id="node_text55" fill="black"><text id="kity_text_490" text-rendering="inherit" font-size="12" dy=".8em" y="1545.7000000476837" x="391.5">槽函数可以使用lambda表达式、全局函数、static函数和任何成员函数</text></g></g><g id="minder_node56"><g id="node_expander55" style="cursor: pointer;" display="none"><path id="kity_path_501" fill="white" stroke="gray" d="M381.5,1605.5A6,6,0,1,1,369.5,1605.5A6,6,0,1,1,381.5,1605.5"></path><path id="kity_path_502" fill="none" stroke="gray"></path></g><path id="node_outline56" fill="none" stroke="none" d="M386.5,1594.5h373a5,5,0,0,1,5,5v12a5,5,0,0,1,-5,5h-373a5,5,0,0,1,-5,-5v-12a5,5,0,0,1,5,-5z" stroke-width="3"></path><g id="node_text56" fill="black"><text id="kity_text_498" text-rendering="inherit" font-size="12" dy=".8em" y="1597.7000000476837" x="391.5">信号和槽连接后可以使用disconnect断开连接（一般不会断开连接）</text></g></g><g id="minder_node57"><g id="node_expander56" style="cursor: pointer;"><path id="kity_path_509" fill="white" stroke="gray" d="M270.5,1676.5A6,6,0,1,1,258.5,1676.5A6,6,0,1,1,270.5,1676.5"></path><path id="kity_path_510" fill="none" stroke="gray" d="M260,1676.5L269,1676.5"></path></g><path id="node_outline57" fill="rgb(238, 243, 246)" stroke="rgb(115, 161, 191)" d="M274.5,1663.5h176a3,3,0,0,1,3,3v20a3,3,0,0,1,-3,3h-176a3,3,0,0,1,-3,-3v-20a3,3,0,0,1,3,-3z" stroke-width="1"></path><g id="node_text57" fill="black"><text id="kity_text_506" text-rendering="inherit" font-size="14" dy=".8em" y="1667.4000000953674" x="291.5">避免主线程阻塞的方法</text></g></g><g id="minder_node58"><g id="node_expander57" style="cursor: pointer;" display="none"><path id="kity_path_517" fill="white" stroke="gray" d="M493.5,1676.5A6,6,0,1,1,481.5,1676.5A6,6,0,1,1,493.5,1676.5"></path><path id="kity_path_518" fill="none" stroke="gray"></path></g><path id="node_outline58" fill="none" stroke="none" d="M498.5,1656.5h494a5,5,0,0,1,5,5v30a5,5,0,0,1,-5,5h-494a5,5,0,0,1,-5,-5v-30a5,5,0,0,1,5,-5z" stroke-width="3"></path><g id="node_text58" fill="black"><text id="kity_text_514" text-rendering="inherit" font-size="12" dy=".8em" y="1659.7000000476837" x="503.5">由于处理函数时间太长，导致主线程卡死，</text><text id="kity_text_519" text-rendering="inherit" font-size="12" dy=".8em" y="1677.7000000476837" x="503.5">解决方法为：使用QThread，将处理函数放在一个新线程执行，这样就可以避免主线程卡死</text></g></g><g id="minder_node4"><g id="node_expander1" style="cursor: pointer;" display="none"><path id="kity_path_152" fill="white" stroke="gray" d="M588.5,40.5A6,6,0,1,1,576.5,40.5A6,6,0,1,1,588.5,40.5"></path><path id="kity_path_153" fill="none" stroke="gray"></path></g><path id="node_outline2" fill="none" stroke="none" d="M593.5,29.5h132a5,5,0,0,1,5,5v12a5,5,0,0,1,-5,5h-132a5,5,0,0,1,-5,-5v-12a5,5,0,0,1,5,-5z" stroke-width="3"></path><g id="node_text2" fill="black"><text id="kity_text_79" text-rendering="inherit" font-size="12" dy=".8em" y="32.700000047683716" x="598.5">只有函数声明没有实现</text></g></g><g id="minder_node3"><g id="node_expander2" style="cursor: pointer;"><path id="kity_path_155" fill="white" stroke="gray" d="M381.5,40.5A6,6,0,1,1,369.5,40.5A6,6,0,1,1,381.5,40.5"></path><path id="kity_path_156" fill="none" stroke="gray" d="M371,40.5L380,40.5"></path></g><path id="node_outline3" fill="none" stroke="none" d="M386.5,20.5h157a5,5,0,0,1,5,5v30a5,5,0,0,1,-5,5h-157a5,5,0,0,1,-5,-5v-30a5,5,0,0,1,5,-5z" stroke-width="3"></path><g id="node_text3" fill="black"><text id="kity_text_81" text-rendering="inherit" font-size="12" dy=".8em" y="23.700000047683716" x="391.5">普通函数，不需要实现</text><text id="kity_text_82" text-rendering="inherit" font-size="12" dy=".8em" y="41.700000047683716" x="391.5">（使用signals关键字声明）</text></g></g><g id="minder_node6"><g id="node_expander3" style="cursor: pointer;" display="none"><path id="kity_path_158" fill="white" stroke="gray" d="M503.5,101.5A6,6,0,1,1,491.5,101.5A6,6,0,1,1,503.5,101.5"></path><path id="kity_path_159" fill="none" stroke="gray"></path></g><path id="node_outline4" fill="none" stroke="none" d="M508.5,90.5h85a5,5,0,0,1,5,5v12a5,5,0,0,1,-5,5h-85a5,5,0,0,1,-5,-5v-12a5,5,0,0,1,5,-5z" stroke-width="3"></path><g id="node_text4" fill="black"><text id="kity_text_84" text-rendering="inherit" font-size="12" dy=".8em" y="93.70000004768372" x="513.5">void类型函数</text></g></g><g id="minder_node5"><g id="node_expander4" style="cursor: pointer;"><path id="kity_path_161" fill="white" stroke="gray" d="M381.5,101.5A6,6,0,1,1,369.5,101.5A6,6,0,1,1,381.5,101.5"></path><path id="kity_path_162" fill="none" stroke="gray" d="M371,101.5L380,101.5"></path></g><path id="node_outline5" fill="none" stroke="none" d="M386.5,90.5h72a5,5,0,0,1,5,5v12a5,5,0,0,1,-5,5h-72a5,5,0,0,1,-5,-5v-12a5,5,0,0,1,5,-5z" stroke-width="3"></path><g id="node_text5" fill="black"><text id="kity_text_86" text-rendering="inherit" font-size="12" dy=".8em" y="93.70000004768372" x="391.5">没有返回值</text></g></g><g id="minder_node9"><g id="node_expander5" style="cursor: pointer;" display="none"><path id="kity_path_164" fill="white" stroke="gray" d="M788.5,153.5A6,6,0,1,1,776.5,153.5A6,6,0,1,1,788.5,153.5"></path><path id="kity_path_165" fill="none" stroke="gray"></path></g><path id="node_outline6" fill="none" stroke="none" d="M793.5,142.5h180a5,5,0,0,1,5,5v12a5,5,0,0,1,-5,5h-180a5,5,0,0,1,-5,-5v-12a5,5,0,0,1,5,-5z" stroke-width="3"></path><g id="node_text6" fill="black"><text id="kity_text_88" text-rendering="inherit" font-size="12" dy=".8em" y="145.70000004768372" x="798.5">只需要写类型不要设置形参名字</text></g></g><g id="minder_node8"><g id="node_expander6" style="cursor: pointer;"><path id="kity_path_167" fill="white" stroke="gray" d="M503.5,153.5A6,6,0,1,1,491.5,153.5A6,6,0,1,1,503.5,153.5"></path><path id="kity_path_168" fill="none" stroke="gray" d="M493,153.5L502,153.5"></path></g><path id="node_outline7" fill="none" stroke="none" d="M508.5,142.5h235a5,5,0,0,1,5,5v12a5,5,0,0,1,-5,5h-235a5,5,0,0,1,-5,-5v-12a5,5,0,0,1,5,-5z" stroke-width="3"></path><g id="node_text7" fill="black"><text id="kity_text_90" text-rendering="inherit" font-size="12" dy=".8em" y="145.70000004768372" x="513.5">void sig1(int, double, QString, QImage)</text></g></g><g id="minder_node7"><g id="node_expander7" style="cursor: pointer;"><path id="kity_path_170" fill="white" stroke="gray" d="M381.5,153.5A6,6,0,1,1,369.5,153.5A6,6,0,1,1,381.5,153.5"></path><path id="kity_path_171" fill="none" stroke="gray" d="M371,153.5L380,153.5"></path></g><path id="node_outline8" fill="none" stroke="none" d="M386.5,142.5h72a5,5,0,0,1,5,5v12a5,5,0,0,1,-5,5h-72a5,5,0,0,1,-5,-5v-12a5,5,0,0,1,5,-5z" stroke-width="3"></path><g id="node_text8" fill="black"><text id="kity_text_92" text-rendering="inherit" font-size="12" dy=".8em" y="145.70000004768372" x="391.5">可以带参数</text></g></g><g id="minder_node10"><g id="node_expander8" style="cursor: pointer;" display="none"><path id="kity_path_173" fill="white" stroke="gray" d="M381.5,205.5A6,6,0,1,1,369.5,205.5A6,6,0,1,1,381.5,205.5"></path><path id="kity_path_174" fill="none" stroke="gray"></path></g><path id="node_outline9" fill="none" stroke="none" d="M386.5,194.5h170a5,5,0,0,1,5,5v12a5,5,0,0,1,-5,5h-170a5,5,0,0,1,-5,-5v-12a5,5,0,0,1,5,-5z" stroke-width="3"></path><g id="node_text9" fill="black"><text id="kity_text_94" text-rendering="inherit" font-size="12" dy=".8em" y="197.70000004768372" x="391.5">可以使用emit关键字发送信号</text></g></g></g></g></svg>